<!DOCTYPE svg PUBLIC "-//W3C//DTD SVG 1.1//EN" "http://www.w3.org/Graphics/SVG/1.1/DTD/svg11.dtd">
<svg width = "1500" height = "1500"
    xmlns="http://www.w3.org/2000/svg"
    xmlns:xlink="http://www.w3.org/1999/xlink">


    <defs>
        <g id="arvores">
            <linearGradient id="coravores" x1="100%" y1="10%" x2="40%" y2="120%">
            <stop offset="10%" style="stop-color:#0c6818;stop-opacity:1" />
            <stop offset="50%" style="stop-color:#18f435;stop-opacity:10" />
            </linearGradient>

            <path stroke="#9e6110" fill="#9e6110" stroke-width="2"  d="
            M 60 760
            L 75 730
            L 75 660
            L 125 650
            L 125 740
            L 125 750
            M 100 750
            L 110 740
            L 110 670
            L 140 670
            L 140 740
            L 160 750 z"/>

            <path stroke="black" fill="url(#coravores)" stroke-width="2" d="
            M 110 450
            c 20 80 120 200 0 250
            c -50 10 -120 -10 0 -250 z"/>
        </g>
    </defs>
    <use xlink:href = "#arvores" transform="translate(210,-250) scale(1.5,1.3)"/>
    <use xlink:href = "#arvores" transform="translate(110,-450) scale(1.2,1.5)"/>
    <use xlink:href = "#arvores"/>
    <use xlink:href = "#arvores" transform="translate(120,20)"/>
    <use xlink:href = "#arvores" transform="translate(130,500) scale(0.3,0.4)"/>
    <use xlink:href = "#arvores" transform="translate(250,20)"/>
    <use xlink:href = "#arvores" transform="translate(250,480) scale(0.3,0.4)"/>
    
    
    

</svg>
